<svg width="179" height="55" viewBox="0 0 179 55" fill="none" xmlns="http://www.w3.org/2000/svg">
<path d="M0 0L1.29796 5.62571L5.52099 1.68879L0 0ZM79.7867 12.9412L79.5575 12.4968L79.7867 12.9412ZM176 55L178.421 49.7586L172.671 50.2826L176 55ZM2.71929 3.64935C2.94404 3.86878 3.17374 4.08912 3.40833 4.31016L4.09411 3.58235C3.86379 3.36534 3.63836 3.1491 3.41788 2.93383L2.71929 3.64935ZM12.0545 11.0825C14.9464 12.9722 18.1774 14.7626 21.7128 16.3188L22.1157 15.4036C18.6333 13.8707 15.4503 12.1069 12.6016 10.2454L12.0545 11.0825ZM32.0986 19.8851C35.5262 20.7444 39.148 21.3492 42.9426 21.6182L43.0133 20.6207C39.2795 20.356 35.7154 19.7609 32.3417 18.9151L32.0986 19.8851ZM53.9179 21.4364C57.4086 21.0758 61.0093 20.4168 64.7066 19.4094L64.4438 18.4446C60.7988 19.4377 57.2517 20.0867 53.8152 20.4417L53.9179 21.4364ZM75.0471 15.7491C76.6885 15.0336 78.3451 14.247 80.0158 13.3856L79.5575 12.4968C77.9058 13.3484 76.2688 14.1257 74.6475 14.8324L75.0471 15.7491ZM80.0158 13.3856C81.5599 12.5895 83.1025 11.8527 84.6421 11.1734L84.2385 10.2585C82.6802 10.946 81.1193 11.6915 79.5575 12.4968L80.0158 13.3856ZM94.2638 7.64413C97.6313 6.65475 100.97 5.92775 104.263 5.44299L104.117 4.45365C100.778 4.94523 97.3939 5.68224 93.9819 6.68469L94.2638 7.64413ZM114.459 4.69382C117.941 4.69529 121.348 4.96183 124.661 5.46721L124.812 4.47865C121.45 3.96574 117.992 3.69531 114.459 3.69382L114.459 4.69382ZM134.618 7.77543C137.925 8.81466 141.098 10.096 144.111 11.5874L144.555 10.6912C141.496 9.177 138.275 7.87628 134.918 6.82143L134.618 7.77543ZM152.888 16.8316C155.712 18.8417 158.325 21.0516 160.695 23.4226L161.402 22.7157C158.992 20.3045 156.336 18.0587 153.467 16.0169L152.888 16.8316ZM167.239 31.2573C169.206 34.1117 170.857 37.1043 172.154 40.1876L173.076 39.7998C171.751 36.6503 170.066 33.5978 168.062 30.6899L167.239 31.2573ZM174.997 49.9539C175.032 50.1664 175.065 50.3792 175.097 50.592L176.086 50.4456C176.054 50.2274 176.02 50.0095 175.984 49.7917L174.997 49.9539Z" fill="#00A082"/>
</svg>
