<svg width="179" height="55" viewBox="0 0 179 55" fill="none" xmlns="http://www.w3.org/2000/svg">
<path d="M0 55L1.29796 49.3743L5.52099 53.3112L0 55ZM79.7867 42.0588L79.5575 42.5032L79.7867 42.0588ZM176 0L178.421 5.24136L172.671 4.71737L176 0ZM2.71929 51.3507C2.94404 51.1312 3.17374 50.9109 3.40833 50.6898L4.09411 51.4176C3.86379 51.6347 3.63836 51.8509 3.41788 52.0662L2.71929 51.3507ZM12.0545 43.9175C14.9464 42.0278 18.1774 40.2374 21.7128 38.6812L22.1157 39.5964C18.6333 41.1293 15.4503 42.8931 12.6016 44.7546L12.0545 43.9175ZM32.0986 35.1149C35.5262 34.2556 39.148 33.6508 42.9426 33.3818L43.0133 34.3793C39.2795 34.644 35.7154 35.2391 32.3417 36.0849L32.0986 35.1149ZM53.9179 33.5636C57.4086 33.9242 61.0093 34.5832 64.7066 35.5906L64.4438 36.5554C60.7988 35.5623 57.2517 34.9133 53.8152 34.5583L53.9179 33.5636ZM75.0471 39.2509C76.6885 39.9664 78.3451 40.753 80.0158 41.6144L79.5575 42.5032C77.9058 41.6516 76.2688 40.8743 74.6475 40.1676L75.0471 39.2509ZM80.0158 41.6144C81.5599 42.4105 83.1025 43.1473 84.6421 43.8266L84.2385 44.7415C82.6802 44.054 81.1193 43.3085 79.5575 42.5032L80.0158 41.6144ZM94.2638 47.3559C97.6313 48.3453 100.97 49.0722 104.263 49.557L104.117 50.5463C100.778 50.0548 97.3939 49.3178 93.9819 48.3153L94.2638 47.3559ZM114.459 50.3062C117.941 50.3047 121.348 50.0382 124.661 49.5328L124.812 50.5214C121.45 51.0343 117.992 51.3047 114.459 51.3062L114.459 50.3062ZM134.618 47.2246C137.925 46.1853 141.098 44.904 144.111 43.4126L144.555 44.3088C141.496 45.823 138.275 47.1237 134.918 48.1786L134.618 47.2246ZM152.888 38.1684C155.712 36.1583 158.325 33.9484 160.695 31.5774L161.402 32.2843C158.992 34.6955 156.336 36.9413 153.467 38.9831L152.888 38.1684ZM167.239 23.7427C169.206 20.8883 170.857 17.8957 172.154 14.8124L173.076 15.2002C171.751 18.3497 170.066 21.4022 168.062 24.3101L167.239 23.7427ZM174.997 5.04607C175.032 4.83355 175.065 4.62085 175.097 4.40798L176.086 4.55441C176.054 4.77257 176.02 4.99053 175.984 5.20829L174.997 5.04607Z" fill="#00A082"/>
</svg>
