<svg width="22" height="22" viewBox="0 0 22 22" fill="none" xmlns="http://www.w3.org/2000/svg">
<path d="M11.9425 1.8335C12.9738 1.83625 13.4972 1.84175 13.9491 1.85458L14.1269 1.861C14.3323 1.86833 14.5349 1.8775 14.7796 1.8885C15.7549 1.93433 16.4204 2.08833 17.0044 2.31475C17.6094 2.54758 18.119 2.86291 18.6287 3.37166C19.095 3.82975 19.4557 4.3841 19.6856 4.996C19.912 5.57991 20.066 6.24541 20.1119 7.22166C20.1229 7.4655 20.132 7.66808 20.1394 7.87433L20.1449 8.05216C20.1586 8.50316 20.1641 9.02658 20.1659 10.0578L20.1669 10.7417V11.9425C20.1691 12.6111 20.1621 13.2797 20.1458 13.9482L20.1403 14.126C20.1329 14.3322 20.1238 14.5348 20.1128 14.7787C20.0669 15.7549 19.9111 16.4195 19.6856 17.0043C19.4557 17.6162 19.095 18.1706 18.6287 18.6287C18.1706 19.095 17.6163 19.4557 17.0044 19.6856C16.4204 19.912 15.7549 20.066 14.7796 20.1118L14.1269 20.1393L13.9491 20.1448C13.4972 20.1577 12.9738 20.1641 11.9425 20.1659L11.2587 20.1668H10.0588C9.38985 20.1692 8.72093 20.1622 8.0522 20.1457L7.87436 20.1402C7.65676 20.132 7.4392 20.1225 7.2217 20.1118C6.24636 20.066 5.58086 19.912 4.99603 19.6856C4.38446 19.4555 3.83044 19.0949 3.37261 18.6287C2.90598 18.1707 2.54496 17.6163 2.31478 17.0043C2.08836 16.4204 1.93436 15.7549 1.88853 14.7787L1.86103 14.126L1.85645 13.9482C1.83955 13.2797 1.83191 12.6111 1.83353 11.9425V10.0578C1.83099 9.38921 1.83771 8.72059 1.8537 8.05216L1.86011 7.87433C1.86745 7.66808 1.87661 7.4655 1.88761 7.22166C1.93345 6.24541 2.08745 5.58083 2.31386 4.996C2.54458 4.38384 2.90623 3.82948 3.37353 3.37166C3.83109 2.90558 4.38478 2.5449 4.99603 2.31475C5.58086 2.08833 6.24545 1.93433 7.2217 1.8885C7.46553 1.8775 7.66903 1.86833 7.87436 1.861L8.0522 1.8555C8.72062 1.83921 9.38924 1.83218 10.0579 1.83441L11.9425 1.8335ZM11.0002 6.41683C9.78462 6.41683 8.61883 6.89971 7.75929 7.75926C6.89975 8.6188 6.41686 9.78459 6.41686 11.0002C6.41686 12.2157 6.89975 13.3815 7.75929 14.2411C8.61883 15.1006 9.78462 15.5835 11.0002 15.5835C12.2158 15.5835 13.3816 15.1006 14.2411 14.2411C15.1006 13.3815 15.5835 12.2157 15.5835 11.0002C15.5835 9.78459 15.1006 8.6188 14.2411 7.75926C13.3816 6.89971 12.2158 6.41683 11.0002 6.41683ZM11.0002 8.25016C11.3613 8.2501 11.7189 8.32117 12.0526 8.45932C12.3863 8.59746 12.6895 8.79998 12.9449 9.0553C13.2003 9.31061 13.4029 9.61374 13.5411 9.94736C13.6794 10.281 13.7506 10.6386 13.7507 10.9997C13.7507 11.3608 13.6796 11.7185 13.5415 12.0521C13.4034 12.3858 13.2008 12.689 12.9455 12.9444C12.6902 13.1998 12.3871 13.4024 12.0535 13.5407C11.7198 13.6789 11.3622 13.7501 11.0011 13.7502C10.2718 13.7502 9.57229 13.4604 9.05657 12.9447C8.54084 12.429 8.25111 11.7295 8.25111 11.0002C8.25111 10.2708 8.54084 9.57134 9.05657 9.05562C9.57229 8.53989 10.2718 8.25016 11.0011 8.25016M15.8136 5.04183C15.5097 5.04183 15.2183 5.16255 15.0034 5.37744C14.7885 5.59232 14.6678 5.88377 14.6678 6.18766C14.6678 6.49156 14.7885 6.783 15.0034 6.99789C15.2183 7.21277 15.5097 7.3335 15.8136 7.3335C16.1175 7.3335 16.409 7.21277 16.6238 6.99789C16.8387 6.783 16.9594 6.49156 16.9594 6.18766C16.9594 5.88377 16.8387 5.59232 16.6238 5.37744C16.409 5.16255 16.1175 5.04183 15.8136 5.04183Z" fill="white"/>
</svg>
